# xmcd
#
# Track frame offsets:
#	150
#	14875
#	33303
#	49303
#	63568
#	81548
#	93783
#	110990
#	126090
#	143968
#	169559
#
# Disc length: 2368 seconds
#
# Revision: 426389247
# Processed by: cddbd v1.5.2PL0 Copyright (c) Steve Scherf et al.
# Submitted via: EZCDAudioConverter 8.2.2.1
#
DISCID=a0093e0b
DTITLE=Doug Supernaw - The Encore Collection
DYEAR=1900
DGENRE=Contemporary Country
TTITLE0=Honky Tonkin' Fool
TTITLE1=You Never Even Call Me By My Name
TTITLE2=Reno
TTITLE3=You're Gonna Bring Back Cheatin' Songs
TTITLE4=Red And Rio Grande
TTITLE5=What'll You Do About Me
TTITLE6=I Don't Call Him Daddy
TTITLE7=I Would Have Loved You All Night Long
TTITLE8=After The Storm
TTITLE9=Here's To Lyin'
TTITLE10=Data
EXTD=
EXTT0=
EXTT1=
EXTT2=
EXTT3=
EXTT4=
EXTT5=
EXTT6=
EXTT7=
EXTT8=
EXTT9=
EXTT10=
PLAYORDER=
